<!-- Tamil Medical Optimizer Icon - 32x32 -->
<svg width="32" height="32" viewBox="0 0 32 32" xmlns="http://www.w3.org/2000/svg">
  <!-- Background circle with gradient -->
  <defs>
    <linearGradient id="bgGradient32" x1="0%" y1="0%" x2="100%" y2="100%">
      <stop offset="0%" style="stop-color:#667eea;stop-opacity:1" />
      <stop offset="100%" style="stop-color:#764ba2;stop-opacity:1" />
    </linearGradient>
    <filter id="shadow" x="-20%" y="-20%" width="140%" height="140%">
      <dropShadow dx="1" dy="1" stdDeviation="1" flood-color="rgba(0,0,0,0.3)"/>
    </filter>
  </defs>
  
  <!-- Background -->
  <circle cx="16" cy="16" r="16" fill="url(#bgGradient32)" filter="url(#shadow)"/>
  
  <!-- Medical cross -->
  <rect x="13" y="8" width="6" height="16" fill="white" rx="1"/>
  <rect x="8" y="13" width="16" height="6" fill="white" rx="1"/>
  
  <!-- Tamil letter "род" (ta) more detailed -->
  <g transform="translate(4,6)">
    <path d="M0 0 C2 -1, 6 -1, 8 0 C8 2, 6 4, 4 4 C2 4, 0 2, 0 0 Z" 
          fill="#ffd700" stroke="white" stroke-width="0.5"/>
    <circle cx="4" cy="2" r="1" fill="white"/>
  </g>
  
  <!-- Ayurvedic herbs symbol -->
  <g transform="translate(22,22)">
    <ellipse cx="0" cy="0" rx="4" ry="3" fill="#4CAF50" transform="rotate(45)"/>
    <ellipse cx="0" cy="0" rx="3" ry="2" fill="#66BB6A" transform="rotate(45)"/>
    <path d="M-2 -2 Q0 -3, 2 -2" stroke="#2E7D32" stroke-width="1" fill="none"/>
    <circle cx="0" cy="0" r="0.5" fill="#FFF"/>
  </g>
  
  <!-- Om symbol (small) -->
  <g transform="translate(6,24) scale(0.3)">
    <path d="M0 0 C2 -2, 6 -2, 8 0 C10 2, 8 6, 6 8 C4 6, 2 2, 0 0 Z" 
          fill="#FF9800" stroke="white" stroke-width="1"/>
  </g>
</svg>
