<!-- Tamil Medical Optimizer Icon - 128x128 -->
<svg width="128" height="128" viewBox="0 0 128 128" xmlns="http://www.w3.org/2000/svg">
  <!-- Background circle with gradient -->
  <defs>
    <linearGradient id="bgGradient128" x1="0%" y1="0%" x2="100%" y2="100%">
      <stop offset="0%" style="stop-color:#667eea;stop-opacity:1" />
      <stop offset="50%" style="stop-color:#764ba2;stop-opacity:1" />
      <stop offset="100%" style="stop-color:#f093fb;stop-opacity:1" />
    </linearGradient>
    <filter id="shadow128" x="-20%" y="-20%" width="140%" height="140%">
      <dropShadow dx="4" dy="4" stdDeviation="4" flood-color="rgba(0,0,0,0.5)"/>
    </filter>
    <radialGradient id="crossGradient128" cx="50%" cy="50%" r="50%">
      <stop offset="0%" style="stop-color:#ffffff;stop-opacity:1" />
      <stop offset="80%" style="stop-color:#f8f9fa;stop-opacity:1" />
      <stop offset="100%" style="stop-color:#e9ecef;stop-opacity:1" />
    </radialGradient>
    <linearGradient id="leafGradient" x1="0%" y1="0%" x2="100%" y2="100%">
      <stop offset="0%" style="stop-color:#4CAF50;stop-opacity:1" />
      <stop offset="100%" style="stop-color:#2E7D32;stop-opacity:1" />
    </linearGradient>
  </defs>
  
  <!-- Background -->
  <circle cx="64" cy="64" r="64" fill="url(#bgGradient128)" filter="url(#shadow128)"/>
  
  <!-- Inner circle for depth -->
  <circle cx="64" cy="64" r="58" fill="none" stroke="rgba(255,255,255,0.2)" stroke-width="2"/>
  
  <!-- Medical cross with gradient and shadow -->
  <rect x="50" y="32" width="28" height="64" fill="url(#crossGradient128)" rx="6" stroke="#dee2e6" stroke-width="1"/>
  <rect x="32" y="50" width="64" height="28" fill="url(#crossGradient128)" rx="6" stroke="#dee2e6" stroke-width="1"/>
  
  <!-- Tamil letter "род" (ta) highly detailed -->
  <g transform="translate(16,24)">
    <path d="M0 0 C8 -4, 24 -4, 32 0 C32 8, 24 16, 16 16 C8 16, 0 8, 0 0 Z" 
          fill="#ffd700" stroke="white" stroke-width="2"/>
    <circle cx="16" cy="8" r="4" fill="white"/>
    <path d="M4 6 C10 4, 22 4, 28 6" stroke="white" stroke-width="2" fill="none"/>
    <path d="M8 10 C12 9, 20 9, 24 10" stroke="white" stroke-width="1.5" fill="none"/>
    <!-- Tamil decorative dots -->
    <circle cx="8" cy="4" r="1.5" fill="white"/>
    <circle cx="24" cy="4" r="1.5" fill="white"/>
  </g>
  
  <!-- Ayurvedic mortar and pestle with herbs -->
  <g transform="translate(88,88)">
    <!-- Mortar base -->
    <ellipse cx="0" cy="8" rx="16" ry="12" fill="#8D6E63"/>
    <ellipse cx="0" cy="4" rx="14" ry="10" fill="#A1887F"/>
    <ellipse cx="0" cy="0" rx="12" ry="8" fill="#BCAAA4"/>
    
    <!-- Various herbs and leaves -->
    <ellipse cx="-6" cy="-8" rx="8" ry="5" fill="url(#leafGradient)" transform="rotate(30)"/>
    <ellipse cx="6" cy="-8" rx="8" ry="5" fill="#66BB6A" transform="rotate(-30)"/>
    <ellipse cx="0" cy="-10" rx="6" ry="4" fill="#81C784"/>
    <ellipse cx="-4" cy="-6" rx="5" ry="3" fill="#A5D6A7" transform="rotate(60)"/>
    <ellipse cx="4" cy="-6" rx="5" ry="3" fill="#C8E6C9" transform="rotate(-60)"/>
    
    <!-- Detailed leaf veins -->
    <path d="M-6 -8 Q0 -12, 6 -8" stroke="#2E7D32" stroke-width="2" fill="none"/>
    <path d="M3 -8 Q0 -10, -3 -8" stroke="#2E7D32" stroke-width="1.5" fill="none"/>
    <path d="M-2 -6 L2 -6" stroke="#2E7D32" stroke-width="1" fill="none"/>
    
    <!-- Pestle -->
    <rect x="-3" y="-20" width="6" height="24" fill="#6D4C41" rx="3"/>
    <ellipse cx="0" cy="-20" rx="6" ry="3" fill="#5D4037"/>
    <ellipse cx="0" cy="-18" rx="4" ry="2" fill="#795548"/>
    
    <!-- Grinding particles -->
    <circle cx="-4" cy="2" r="1" fill="#4CAF50" opacity="0.7"/>
    <circle cx="3" cy="1" r="0.8" fill="#66BB6A" opacity="0.7"/>
    <circle cx="0" cy="3" r="1.2" fill="#81C784" opacity="0.7"/>
  </g>
  
  <!-- Om symbol detailed -->
  <g transform="translate(24,96) scale(1.2)">
    <path d="M0 0 C8 -6, 24 -6, 32 0 C40 8, 32 24, 24 32 C16 24, 8 8, 0 0 Z" 
          fill="#FF9800" stroke="white" stroke-width="2"/>
    <path d="M6 8 C12 6, 20 6, 26 8" stroke="white" stroke-width="2" fill="none"/>
    <path d="M8 12 C14 11, 18 11, 24 12" stroke="white" stroke-width="1.5" fill="none"/>
    <circle cx="16" cy="16" r="3" fill="white"/>
    <path d="M10 20 Q16 18, 22 20" stroke="white" stroke-width="1.5" fill="none"/>
  </g>
  
  <!-- YouTube play button -->
  <g transform="translate(96,32)">
    <circle cx="0" cy="0" r="12" fill="#FF0000" opacity="0.9"/>
    <circle cx="0" cy="0" r="10" fill="#CC0000"/>
    <polygon points="-4,-4 -4,4 6,0" fill="white"/>
  </g>
  
  <!-- Medical caduceus symbol -->
  <g transform="translate(32,96) scale(1.5)">
    <rect x="-1" y="-16" width="2" height="32" fill="#FFD700"/>
    <!-- Snakes -->
    <path d="M-8 -8 Q0 -12, 8 -8 Q0 -4, -8 -8" stroke="#4CAF50" stroke-width="2" fill="none"/>
    <path d="M-8 8 Q0 4, 8 8 Q0 12, -8 8" stroke="#4CAF50" stroke-width="2" fill="none"/>
    <path d="M-6 0 Q0 -2, 6 0 Q0 2, -6 0" stroke="#4CAF50" stroke-width="2" fill="none"/>
    <!-- Wings -->
    <ellipse cx="-4" cy="-14" rx="6" ry="3" fill="#E0E0E0" transform="rotate(-20)"/>
    <ellipse cx="4" cy="-14" rx="6" ry="3" fill="#E0E0E0" transform="rotate(20)"/>
    <!-- Top sphere -->
    <circle cx="0" cy="-16" r="3" fill="#FFD700"/>
  </g>
  
  <!-- Stethoscope -->
  <g transform="translate(96,96) scale(0.8)">
    <path d="M-10 -10 Q-8 -12, -6 -10 Q0 -8, 6 -10 Q8 -12, 10 -10" 
          stroke="#4A90A4" stroke-width="3" fill="none"/>
    <circle cx="-10" cy="-10" r="4" fill="#4A90A4"/>
    <circle cx="10" cy="-10" r="4" fill="#4A90A4"/>
    <path d="M0 -8 Q0 0, 0 8" stroke="#4A90A4" stroke-width="3" fill="none"/>
    <circle cx="0" cy="8" r="6" fill="#2C5282"/>
    <circle cx="0" cy="8" r="4" fill="#4A90A4"/>
  </g>
  
  <!-- DNA Helix -->
  <g transform="translate(16,64) scale(0.6)">
    <path d="M-8 -20 Q0 -15, 8 -10 Q0 -5, -8 0 Q0 5, 8 10 Q0 15, -8 20" 
          stroke="#E91E63" stroke-width="2" fill="none"/>
    <path d="M8 -20 Q0 -15, -8 -10 Q0 -5, 8 0 Q0 5, -8 10 Q0 15, 8 20" 
          stroke="#9C27B0" stroke-width="2" fill="none"/>
    <!-- Base pairs -->
    <line x1="-4" y1="-15" x2="4" y2="-15" stroke="#FFC107" stroke-width="1"/>
    <line x1="-4" y1="-5" x2="4" y2="-5" stroke="#FFC107" stroke-width="1"/>
    <line x1="-4" y1="5" x2="4" y2="5" stroke="#FFC107" stroke-width="1"/>
    <line x1="-4" y1="15" x2="4" y2="15" stroke="#FFC107" stroke-width="1"/>
  </g>
</svg>
