<!-- Tamil Medical Optimizer Icon - 48x48 -->
<svg width="48" height="48" viewBox="0 0 48 48" xmlns="http://www.w3.org/2000/svg">
  <!-- Background circle with gradient -->
  <defs>
    <linearGradient id="bgGradient48" x1="0%" y1="0%" x2="100%" y2="100%">
      <stop offset="0%" style="stop-color:#667eea;stop-opacity:1" />
      <stop offset="100%" style="stop-color:#764ba2;stop-opacity:1" />
    </linearGradient>
    <filter id="shadow48" x="-20%" y="-20%" width="140%" height="140%">
      <dropShadow dx="2" dy="2" stdDeviation="2" flood-color="rgba(0,0,0,0.4)"/>
    </filter>
    <radialGradient id="crossGradient" cx="50%" cy="50%" r="50%">
      <stop offset="0%" style="stop-color:#ffffff;stop-opacity:1" />
      <stop offset="100%" style="stop-color:#f8f9fa;stop-opacity:1" />
    </radialGradient>
  </defs>
  
  <!-- Background -->
  <circle cx="24" cy="24" r="24" fill="url(#bgGradient48)" filter="url(#shadow48)"/>
  
  <!-- Medical cross with gradient -->
  <rect x="19" y="12" width="10" height="24" fill="url(#crossGradient)" rx="2" stroke="#e9ecef" stroke-width="0.5"/>
  <rect x="12" y="19" width="24" height="10" fill="url(#crossGradient)" rx="2" stroke="#e9ecef" stroke-width="0.5"/>
  
  <!-- Tamil letter "род" (ta) detailed -->
  <g transform="translate(6,9)">
    <path d="M0 0 C3 -2, 9 -2, 12 0 C12 3, 9 6, 6 6 C3 6, 0 3, 0 0 Z" 
          fill="#ffd700" stroke="white" stroke-width="1"/>
    <circle cx="6" cy="3" r="1.5" fill="white"/>
    <path d="M2 2 C4 1, 8 1, 10 2" stroke="white" stroke-width="0.5" fill="none"/>
  </g>
  
  <!-- Ayurvedic herbs and mortar -->
  <g transform="translate(33,33)">
    <!-- Mortar base -->
    <ellipse cx="0" cy="2" rx="6" ry="4" fill="#8D6E63"/>
    <ellipse cx="0" cy="0" rx="5" ry="3" fill="#A1887F"/>
    
    <!-- Herbs/leaves -->
    <ellipse cx="-2" cy="-2" rx="3" ry="2" fill="#4CAF50" transform="rotate(30)"/>
    <ellipse cx="2" cy="-2" rx="3" ry="2" fill="#66BB6A" transform="rotate(-30)"/>
    <ellipse cx="0" cy="-3" rx="2.5" ry="1.5" fill="#81C784" transform="rotate(0)"/>
    
    <!-- Leaf veins -->
    <path d="M-2 -2 Q0 -3, 2 -2" stroke="#2E7D32" stroke-width="0.8" fill="none"/>
    <path d="M1 -2 Q0 -2.5, -1 -2" stroke="#2E7D32" stroke-width="0.8" fill="none"/>
    
    <!-- Pestle -->
    <rect x="-1" y="-6" width="2" height="8" fill="#6D4C41" rx="1"/>
    <ellipse cx="0" cy="-6" rx="2" ry="1" fill="#5D4037"/>
  </g>
  
  <!-- Om symbol -->
  <g transform="translate(9,36) scale(0.5)">
    <path d="M0 0 C3 -3, 9 -3, 12 0 C15 3, 12 9, 9 12 C6 9, 3 3, 0 0 Z" 
          fill="#FF9800" stroke="white" stroke-width="1"/>
    <path d="M3 3 C5 2, 7 2, 9 3" stroke="white" stroke-width="0.8" fill="none"/>
    <circle cx="6" cy="6" r="1" fill="white"/>
  </g>
  
  <!-- YouTube play button overlay (small) -->
  <g transform="translate(36,12)">
    <circle cx="0" cy="0" r="4" fill="#FF0000" opacity="0.8"/>
    <polygon points="-1.5,-1.5 -1.5,1.5 1.5,0" fill="white"/>
  </g>
  
  <!-- Medical caduceus symbol (small) -->
  <g transform="translate(12,36) scale(0.6)">
    <rect x="-0.5" y="-6" width="1" height="12" fill="#FFD700"/>
    <path d="M-3 -3 Q0 -5, 3 -3 Q0 -1, -3 -3" stroke="#4CAF50" stroke-width="1" fill="none"/>
    <path d="M-3 3 Q0 1, 3 3 Q0 5, -3 3" stroke="#4CAF50" stroke-width="1" fill="none"/>
    <circle cx="0" cy="-6" r="1" fill="#FFD700"/>
  </g>
</svg>
